<?xml version="1.0" encoding="UTF-8"?> <svg xmlns="http://www.w3.org/2000/svg" width="37" height="37" fill="none">
<path transform="translate(-105,2)" fill="#596e91" fill-rule="evenodd" d="M134.397 20.7852c-.188.2473-.397.4874-.627.7157-.786.7763-1.788 1.4289-2.895 1.927-1.108.503-2.322.855-3.57 1.0826-1.244.2275-2.526.3282-3.809.3292-1.282-.001-2.564-.1017-3.809-.3292-.109-.0198-.217-.042-.325-.0638-1.83-2.6901-3.219-7.2032-3.469-8.0488-.716.401-1.963 1.9712-2.297 2.4006l.067.2465c.287 1.1023.703 2.5714 1.08 3.6455-.562-.3538-1.076-.7512-1.52-1.1896l-.079-.0792c-.632-.6372-.879-1.5279-.475-2.369.164-.3418.436-.6309.673-.9232.765-.9473 1.576-1.8668 2.416-2.7598.419-.4412.855-.898 1.293-1.341.438-.4459.884-.8832 1.332-1.3199l.678-.6472c.227-.2155.457-.4258.686-.639.227-.2152.459-.4246.69-.6344.233-.2091.462-.423.697-.6277.322-.27984.613-.59013.981-.81253.805-.48605 1.774-.36179 2.525.17013.208.1645.418.32771.625.4943 1 .8055 1.986 1.627 2.95 2.473.48.4251.959.8512 1.429 1.2863.265.2434.577.4904.868.7371.578-1.5222.91-3.2973 1.04-4.0937-.447-.3131-.9-.60644-1.347-.91955-1.089-.75483-2.192-1.47763-3.303-2.17994-.455-.28774-.913-.56753-1.372-.84451l.005.00282c1.525-1.17888 4.837-3.69884 7.285-5.27281 0 0 .278-.20319.304.165.122 1.73207.001 4.71297-.786 9.58739-.196.968-.413 1.9273-.657 2.8748-.085.3408-.181.6774-.272 1.0151-.099.3354-.189.6726-.293 1.0047-.199.6674-.419 1.3244-.648 1.975-.463 1.2982-.982 2.5619-1.566 3.7782-.243.5091-.574 1.1858-.881 1.7756.514-.0322 1.647-.2631 3.9-1.3326.304-1.0369.708-2.4433.911-3.4123.097-.4612.185-.9232.268-1.386.17.192.34.3851.505.5809.193.2247.381.4527.566.6821 0 0 .91 1.1217.226 2.2762zm-9.676 7.4134c-.103.1184-.206.235-.31.3503l-.019.0197c-.293.3039-.695.567-1.134.5275-.13-.0115-.257-.0468-.375-.1022-.245-.1148-.418-.3113-.595-.5099-.355-.3992-.707-.7963-1.035-1.2178-.334-.4281-.651-.8694-.954-1.32-.052-.0772-.104-.1551-.155-.2332 1.116.0884 2.23.1273 3.34.1281h.025c1.018-.0008 2.037-.0315 3.058-.1045-.578.8752-1.193 1.7033-1.846 2.462zm14.813-10.3658c-.015-.0225-.03-.0451-.046-.0676-.052-.0733-.076-.102-.111-.1489l-.093-.1194c-.062-.0794-.121-.1511-.182-.2247-.12-.1465-.238-.2854-.358-.424-.238-.2749-.477-.5419-.72-.8-.484-.518-.976-1.0161-1.48-1.4935-.889-.8511-1.81-1.6439-2.751-2.3998.071-1.0961.114-2.19117.128-3.28319.002-.36307.007-.72562.006-1.08792-.004-.3623-.003-.72409-.011-1.08613a86.56519 86.56519 0 0 0-.072-2.16585c-.061-1.33313-.068-2.7034-.278-4.01962-.043-.26622-.275-.14912-.275-.14912-.447.20856-.903.41764-1.344.63082-.52.2575-1.045.50963-1.564.77277-1.039.52372-2.073 1.06153-3.09 1.62701-1.016.55344-2.015 1.13327-3.012 1.7213-.434.23522-.867.47273-1.299.71307-1.088.6157-2.169 1.25344-3.238 1.92372-1.068.66925-2.129 1.36234-3.175 2.09078-.522.36616-1.043.73436-1.56 1.11436l-.389.3c-.256-1.1925-.452-2.40133-.609-3.60737-.108-.83093-.22-1.66417-.298-2.49843-.079-.84963-.182-1.72668-.152-2.58016.004-.11351.014-.23163.071-.33002.029-.05124.068-.08506.133-.10812.061-.02229.142-.01076.22.03715 0 0 2.577 1.43562 6.492 4.2515.532-.35999 1.766-1.18093 2.411-1.4866-.49-.28595-1.03-.59777-1.483-.8481-1.33-.73638-2.674-1.44868-4.036-2.12485-.765-.38024-1.537-.77098-2.317-1.11995-.377-.16808-.756-.36512-1.137-.52218-.329-.13554-.803-.37614-1.163-.3049-.037.00768-.074.01818-.109.03202-.309.12273-.444.47017-.472.79224-.254 2.88712-.322 8.35568.364 12.06447-.195.1671-.391.3344-.584.5071-.248.2203-.492.4492-.738.6749-.241.2342-.485.4632-.722.7056-.479.4748-.941.977-1.397 1.4984-.227.2614-.452.5294-.673.8089-.111.1409-.221.2813-.332.4305l-.167.2288-.086.1214-.157.2388c-.233.3949-.369.8701-.369 1.3818 0 2.0921 2.56 3.2687 4.155 4.0545 1.303.6416 2.643 1.0956 3.986 1.4305.064.0159.128.0302.192.0453.282.6695.582 1.3306.898 1.9809.674 1.379 1.444 2.7226 2.354 3.9942.454.636.943 1.2537 1.48 1.8479.269.2975.55.5883.851.874.151.1425.307.2836.472.4253.084.0707.168.1415.261.214l.144.1109.057.042c.047.0357.096.069.146.1005.309.1942.656.3013 1.01.3121.024.001.048.002.072.0023.023-.0003.046-.0013.068-.0023.323-.0134.632-.0954.921-.2388.312-.1551.566-.3721.821-.6075.109-.1015.218-.2048.325-.3093.086-.0848.172-.1706.258-.257.192-.1952.362-.413.555-.6067.526-.5832 1.007-1.1894 1.447-1.82.222-.3136.432-.6336.637-.9565.202-.3254.399-.6518.585-.9839.377-.6608.718-1.3405 1.036-2.0267.3-.6539.582-1.318.847-1.9895.218-.0474.436-.0974.654-.1512 1.343-.3349 2.684-.7889 3.986-1.4305.652-.3203 1.291-.6887 1.919-1.1164.454-.309.913-.5913 1.306-.9772.485-.4758.997-1.0464 1.137-1.7264.134-.6501.011-1.3462-.356-1.9015z" clip-rule="evenodd"></path></svg> 